<svg width="12" height="12" viewBox="0 0 12 12" fill="none" xmlns="http://www.w3.org/2000/svg">
    <path
        d="M11.4243 6.79367C11.4185 6.7932 11.4127 6.79297 11.4069 6.79297H7.40153C7.29094 6.79259 7.20096 6.88194 7.20056 6.99254C7.20054 6.99832 7.20076 7.0041 7.20126 7.00986L7.57136 11.4491C7.59878 11.7599 7.8585 11.9987 8.17057 12H10.6379C10.9497 11.9984 11.2091 11.7597 11.2365 11.4491L11.6072 7.00986C11.6164 6.89964 11.5345 6.80283 11.4243 6.79367ZM10.8374 11.4158C10.8282 11.5196 10.7413 11.5992 10.6371 11.5995H8.17057C8.06636 11.5992 7.97951 11.5196 7.9703 11.4158L7.71936 8.39513H11.0891L10.8374 11.4158ZM11.1226 7.99459H7.68592L7.61923 7.19351H11.1892L11.1226 7.99459Z"
        fill="#005DA4" />
    <path
        d="M4.99831 2.09783V1.57373C5.42591 1.46368 5.68333 1.02781 5.57328 0.600211C5.48226 0.246559 5.16321 -0.000449973 4.79804 6.35465e-07H2.39479C1.95325 -0.000550108 1.59486 0.356958 1.59431 0.798479C1.59386 1.16365 1.84087 1.4827 2.19452 1.57373V2.09783C1.04632 3.15311 0.392616 4.64109 0.39209 6.20057V10.5981C0.392966 11.372 1.02011 11.9991 1.79398 12H5.39885C6.17272 11.9991 6.79987 11.372 6.80074 10.5981V6.20057C6.80022 4.64109 6.14651 3.15311 4.99831 2.09783ZM1.99425 0.801082C1.99425 0.579859 2.17357 0.400541 2.39479 0.400541H4.79804C5.01916 0.4068 5.19335 0.591149 5.18706 0.812272C5.18163 1.00418 5.04077 1.16525 4.85131 1.19622C4.83416 1.19008 4.81621 1.18645 4.79804 1.1854H2.39479C2.37662 1.18645 2.35867 1.19008 2.34152 1.19622C2.14338 1.16963 1.99518 1.001 1.99425 0.801082ZM2.52797 2.33656C2.57071 2.2985 2.59514 2.24398 2.59506 2.18675V1.60216H4.59777V2.18675C4.59769 2.24398 4.62213 2.2985 4.66486 2.33656C5.29629 2.89856 5.78026 3.60685 6.07436 4.39934C5.29065 4.69539 4.41575 4.6266 3.68794 4.21169C2.97821 3.80509 2.13967 3.6859 1.34478 3.87864C1.638 3.29435 2.03951 2.77104 2.52797 2.33656ZM6.4002 10.5981C6.39955 11.1509 5.9516 11.5988 5.39885 11.5995H1.79398C1.24124 11.5988 0.793281 11.1509 0.792631 10.5981V6.20057C0.793056 5.57127 0.908437 4.94733 1.13309 4.35949C1.90961 4.07515 2.77208 4.14845 3.48947 4.55976C4.31509 5.03292 5.3085 5.11403 6.19993 4.78106C6.33246 5.2426 6.39988 5.72037 6.4002 6.20057V10.5981Z"
        fill="#005DA4" />
    <path
        d="M5.79939 6.79297C5.68879 6.79297 5.59912 6.88264 5.59912 6.99324V7.19351C5.59912 7.30411 5.68879 7.39378 5.79939 7.39378C5.90999 7.39378 5.99966 7.30411 5.99966 7.19351V6.99324C5.99966 6.88264 5.90999 6.79297 5.79939 6.79297Z"
        fill="#005DA4" />
    <path
        d="M5.79939 7.79433C5.68879 7.79433 5.59912 7.884 5.59912 7.9946V9.39649C5.59912 9.50709 5.68879 9.59676 5.79939 9.59676C5.90999 9.59676 5.99966 9.50709 5.99966 9.39649V7.9946C5.99966 7.884 5.90999 7.79433 5.79939 7.79433Z"
        fill="#005DA4" />
</svg>