<svg width="13" height="12" viewBox="0 0 13 12" fill="none" xmlns="http://www.w3.org/2000/svg">
    <mask id="path-1-inside-1_68_218" fill="white">
        <path
            d="M4.42593 12C4.13776 12 3.8949 11.9068 3.69736 11.7204C3.49993 11.534 3.40122 11.3049 3.40122 11.0331C3.40122 10.7611 3.49993 10.532 3.69736 10.3456C3.8949 10.1593 4.13776 10.0661 4.42593 10.0661C4.7141 10.0661 4.9569 10.1593 5.15433 10.3456C5.35187 10.532 5.45064 10.7611 5.45064 11.0331C5.45064 11.3049 5.35187 11.534 5.15433 11.7204C4.9569 11.9068 4.7141 12 4.42593 12ZM10.8369 12C10.5487 12 10.3059 11.9068 10.1085 11.7204C9.91092 11.534 9.81215 11.3049 9.81215 11.0331C9.81215 10.7611 9.91092 10.532 10.1085 10.3456C10.3059 10.1593 10.5487 10.0661 10.8369 10.0661C11.125 10.0661 11.3679 10.1593 11.5654 10.3456C11.7629 10.532 11.8616 10.7611 11.8616 11.0331C11.8616 11.3049 11.7629 11.534 11.5654 11.7204C11.3679 11.9068 11.125 12 10.8369 12ZM3.45109 1.93387L5.27456 5.55376H9.80686C9.88576 5.55376 9.95584 5.53512 10.0171 5.49784C10.0785 5.46066 10.131 5.40904 10.1747 5.34297L11.9615 2.281C12.014 2.19011 12.0184 2.10953 11.9746 2.03927C11.9308 1.969 11.8563 1.93387 11.7512 1.93387H3.45109ZM3.11737 1.28925H12.0114C12.3083 1.28925 12.5316 1.40351 12.6813 1.63203C12.8312 1.86055 12.8391 2.09589 12.7051 2.33805L10.7528 5.69493C10.6539 5.85201 10.5254 5.97518 10.3672 6.06446C10.2092 6.15374 10.0355 6.19838 9.84631 6.19838H4.96715L4.13679 7.63638C4.06677 7.73554 4.0646 7.84298 4.1303 7.95869C4.196 8.0744 4.29454 8.13225 4.42593 8.13225H11.8616V8.77688H4.42593C4.02743 8.77688 3.73009 8.61841 3.53392 8.30147C3.33774 7.98453 3.3329 7.66614 3.5194 7.3463L4.54667 5.61822L2.03494 0.644624H0.799988V0H2.46839L3.11737 1.28925Z" />
    </mask>
    <path
        d="M4.42593 12C4.13776 12 3.8949 11.9068 3.69736 11.7204C3.49993 11.534 3.40122 11.3049 3.40122 11.0331C3.40122 10.7611 3.49993 10.532 3.69736 10.3456C3.8949 10.1593 4.13776 10.0661 4.42593 10.0661C4.7141 10.0661 4.9569 10.1593 5.15433 10.3456C5.35187 10.532 5.45064 10.7611 5.45064 11.0331C5.45064 11.3049 5.35187 11.534 5.15433 11.7204C4.9569 11.9068 4.7141 12 4.42593 12ZM10.8369 12C10.5487 12 10.3059 11.9068 10.1085 11.7204C9.91092 11.534 9.81215 11.3049 9.81215 11.0331C9.81215 10.7611 9.91092 10.532 10.1085 10.3456C10.3059 10.1593 10.5487 10.0661 10.8369 10.0661C11.125 10.0661 11.3679 10.1593 11.5654 10.3456C11.7629 10.532 11.8616 10.7611 11.8616 11.0331C11.8616 11.3049 11.7629 11.534 11.5654 11.7204C11.3679 11.9068 11.125 12 10.8369 12ZM3.45109 1.93387L5.27456 5.55376H9.80686C9.88576 5.55376 9.95584 5.53512 10.0171 5.49784C10.0785 5.46066 10.131 5.40904 10.1747 5.34297L11.9615 2.281C12.014 2.19011 12.0184 2.10953 11.9746 2.03927C11.9308 1.969 11.8563 1.93387 11.7512 1.93387H3.45109ZM3.11737 1.28925H12.0114C12.3083 1.28925 12.5316 1.40351 12.6813 1.63203C12.8312 1.86055 12.8391 2.09589 12.7051 2.33805L10.7528 5.69493C10.6539 5.85201 10.5254 5.97518 10.3672 6.06446C10.2092 6.15374 10.0355 6.19838 9.84631 6.19838H4.96715L4.13679 7.63638C4.06677 7.73554 4.0646 7.84298 4.1303 7.95869C4.196 8.0744 4.29454 8.13225 4.42593 8.13225H11.8616V8.77688H4.42593C4.02743 8.77688 3.73009 8.61841 3.53392 8.30147C3.33774 7.98453 3.3329 7.66614 3.5194 7.3463L4.54667 5.61822L2.03494 0.644624H0.799988V0H2.46839L3.11737 1.28925Z"
        fill="white" />
    <path
        d="M5.27456 31.5538H10.0565V-20.4462H5.27456V31.5538ZM3.69736 11.7204L-32.0014 49.5304L-31.996 49.5355L-31.9905 49.5407L3.69736 11.7204ZM3.69736 10.3456L-31.9797 -27.485L-31.9905 -27.4747L-32.0014 -27.4644L3.69736 10.3456ZM5.15433 11.7204L-30.5336 -26.0999L-30.539 -26.0948L-30.5445 -26.0896L5.15433 11.7204ZM10.1085 11.7204L45.8072 -26.0896L45.8018 -26.0948L45.7964 -26.0999L10.1085 11.7204ZM11.5654 10.3456L47.2642 -27.4644L47.2533 -27.4747L47.2425 -27.485L11.5654 10.3456ZM11.5654 11.7204L47.2533 49.5407L47.2588 49.5355L47.2642 49.5304L11.5654 11.7204ZM3.45109 1.93387V-50.0661H-80.9682L-42.9895 25.3277L3.45109 1.93387ZM5.27456 5.55376L-41.166 28.9476L-26.756 57.5538H5.27456V5.55376ZM10.0171 5.49784L-16.924 -38.9788L-16.9708 -38.9505L-17.0176 -38.9221L10.0171 5.49784ZM10.1747 5.34297L53.5405 34.038L54.349 32.8163L55.0873 31.5509L10.1747 5.34297ZM11.9615 2.281L56.8741 28.489L56.9335 28.3872L56.9923 28.2853L11.9615 2.281ZM11.9746 2.03927L56.1252 -25.433L56.1092 -25.4587L56.0932 -25.4845L11.9746 2.03927ZM3.11737 1.28925L-43.3298 24.6699L-28.9234 53.2892H3.11737V1.28925ZM12.6813 1.63203L-30.8144 30.1297L-30.8095 30.1373L-30.8045 30.1448L12.6813 1.63203ZM12.7051 2.33805L57.6561 28.48L57.9348 28.0009L58.2032 27.5159L12.7051 2.33805ZM10.7528 5.69493L54.7514 33.4099L55.2416 32.6319L55.7039 31.8369L10.7528 5.69493ZM10.3672 6.06446L-15.1965 -39.2179L-15.2035 -39.214L-15.2105 -39.21L10.3672 6.06446ZM4.96715 6.19838V-45.8016H-25.0527L-40.0644 -19.8047L4.96715 6.19838ZM4.13679 7.63638L46.6144 37.6306L47.9824 35.6933L49.1683 33.6394L4.13679 7.63638ZM11.8616 8.13225H63.8616V-43.8677H11.8616V8.13225ZM11.8616 8.77688V60.7769H63.8616V8.77688H11.8616ZM3.5194 7.3463L-41.1791 -19.2252L-41.2912 -19.0366L-41.4018 -18.847L3.5194 7.3463ZM4.54667 5.61822L49.2452 32.1897L63.8301 7.65497L50.9634 -17.8229L4.54667 5.61822ZM2.03494 0.644624L48.4517 -22.7965L34.029 -51.3554H2.03494V0.644624ZM0.799988 0.644624H-51.2V52.6446H0.799988V0.644624ZM0.799988 0V-52H-51.2V0H0.799988ZM2.46839 0L48.9156 -23.3807L34.5092 -52H2.46839V0ZM4.42593 -40C16.5169 -40 29.3031 -35.6136 39.3853 -26.0999L-31.9905 49.5407C-21.5133 59.4272 -8.2414 64 4.42593 64V-40ZM39.3961 -26.0896C43.989 -21.7532 48.2377 -16.1149 51.2312 -9.16722C54.2241 -2.22082 55.4012 4.7323 55.4012 11.0331H-48.5988C-48.5988 25.5966 -42.6163 39.5083 -32.0014 49.5304L39.3961 -26.0896ZM55.4012 11.0331C55.4012 17.3309 54.2251 24.2828 51.2329 31.2292C48.24 38.1773 43.9911 43.8172 39.3961 48.1556L-32.0014 -27.4644C-42.6209 -17.4379 -48.5988 -3.52417 -48.5988 11.0331H55.4012ZM39.3744 48.1761C29.2908 57.6857 16.5081 62.0661 4.42593 62.0661V-41.9339C-8.23263 -41.9339 -21.501 -37.3672 -31.9797 -27.485L39.3744 48.1761ZM4.42593 62.0661C-7.65639 62.0661 -20.4454 57.6852 -30.5336 48.1659L40.8422 -27.4747C30.3592 -37.3667 17.0846 -41.9339 4.42593 -41.9339V62.0661ZM-30.5336 48.1659C-35.1294 43.8291 -39.3812 38.1895 -42.3768 31.2392C-45.3718 24.2903 -46.5494 17.3349 -46.5494 11.0331H57.4506C57.4506 -3.53435 51.4648 -17.451 40.8422 -27.4747L-30.5336 48.1659ZM-46.5494 11.0331C-46.5494 4.72828 -45.3707 -2.22838 -42.375 -9.17725C-39.379 -16.127 -35.1274 -21.7651 -30.5336 -26.0999L40.8422 49.5407C51.4602 39.5214 57.4506 25.6068 57.4506 11.0331H-46.5494ZM-30.5445 -26.0896C-20.4578 -35.6131 -7.66516 -40 4.42593 -40V64C17.0934 64 30.3716 59.4267 40.8531 49.5304L-30.5445 -26.0896ZM10.8369 -40C22.9279 -40 35.7206 -35.6131 45.8072 -26.0896L-25.5903 49.5304C-15.1088 59.4267 -1.83054 64 10.8369 64V-40ZM45.7964 -26.0999C50.3902 -21.7651 54.6418 -16.127 57.6379 -9.1772C60.6336 -2.22833 61.8122 4.72832 61.8122 11.0331H-42.1878C-42.1878 25.6067 -36.1975 39.5213 -25.5794 49.5407L45.7964 -26.0999ZM61.8122 11.0331C61.8122 17.3349 60.6346 24.2903 57.6396 31.2392C54.644 38.1894 50.3923 43.8291 45.7964 48.1659L-25.5794 -27.4747C-36.2021 -17.451 -42.1878 -3.53428 -42.1878 11.0331H61.8122ZM45.7964 48.1659C35.7082 57.6853 22.9192 62.0661 10.8369 62.0661V-41.9339C-1.82177 -41.9339 -15.0964 -37.3667 -25.5794 -27.4747L45.7964 48.1659ZM10.8369 62.0661C-1.24538 62.0661 -14.028 57.6857 -24.1116 48.1761L47.2425 -27.485C36.7638 -37.3671 23.4955 -41.9339 10.8369 -41.9339V62.0661ZM-24.1333 48.1556C-28.7283 43.8172 -32.9771 38.1774 -35.9701 31.2292C-38.9623 24.2828 -40.1384 17.331 -40.1384 11.0331H63.8616C63.8616 -3.52424 57.8837 -17.438 47.2642 -27.4644L-24.1333 48.1556ZM-40.1384 11.0331C-40.1384 4.73226 -38.9613 -2.22087 -35.9684 -9.16727C-32.9749 -16.1149 -28.7262 -21.7532 -24.1333 -26.0896L47.2642 49.5304C57.879 39.5083 63.8616 25.5966 63.8616 11.0331H-40.1384ZM-24.1225 -26.0999C-14.0404 -35.6135 -1.25415 -40 10.8369 -40V64C23.5042 64 36.7762 59.4271 47.2533 49.5407L-24.1225 -26.0999ZM-42.9895 25.3277L-41.166 28.9476L51.7151 -17.8401L49.8917 -21.46L-42.9895 25.3277ZM5.27456 57.5538H9.80686V-46.4462H5.27456V57.5538ZM9.80686 57.5538C18.4342 57.5538 28.0401 55.4023 37.0518 49.9177L-17.0176 -38.9221C-8.12847 -44.3321 1.3373 -46.4462 9.80686 -46.4462V57.5538ZM36.9582 49.9745C44.2529 45.5559 49.7026 39.8382 53.5405 34.038L-33.1911 -23.3521C-29.4405 -29.0201 -24.096 -34.6345 -16.924 -38.9788L36.9582 49.9745ZM55.0873 31.5509L56.8741 28.489L-32.9511 -23.927L-34.7379 -20.865L55.0873 31.5509ZM56.9923 28.2853C63.6143 16.8181 69.1527 -4.49648 56.1252 -25.433L-32.176 29.5115C-37.6393 20.7313 -40.5123 10.2312 -39.9191 -0.672359C-39.3643 -10.8705 -35.9442 -18.7449 -33.0694 -23.7233L56.9923 28.2853ZM56.0932 -25.4845C43.9604 -44.9324 24.2894 -50.0661 11.7512 -50.0661V53.9339C6.18099 53.9339 -1.75943 53.0193 -10.3024 48.9887C-19.3524 44.7189 -26.9131 37.9476 -32.1439 29.563L56.0932 -25.4845ZM11.7512 -50.0661H3.45109V53.9339H11.7512V-50.0661ZM3.11737 53.2892H12.0114V-50.7108H3.11737V53.2892ZM12.0114 53.2892C5.43039 53.2892 -2.83058 51.9924 -11.2828 47.668C-19.9132 43.2526 -26.3953 36.8745 -30.8144 30.1297L56.1771 -26.8656C45.4672 -43.2122 28.0325 -50.7108 12.0114 -50.7108V53.2892ZM-30.8045 30.1448C-35.106 23.5845 -38.8059 14.5836 -39.171 3.72739C-39.5346 -7.0862 -36.4709 -16.1936 -32.793 -22.8398L58.2032 27.5159C62.0151 20.6275 65.1418 11.2814 64.7703 0.232451C64.3973 -10.8591 60.6185 -20.092 56.1672 -26.8808L-30.8045 30.1448ZM-32.246 -23.8039L-34.1982 -20.4471L55.7039 31.8369L57.6561 28.48L-32.246 -23.8039ZM-33.2458 -22.0201C-28.8569 -28.9876 -22.7159 -34.9729 -15.1965 -39.2179L35.9309 51.3469C43.7666 46.9233 50.1647 40.6916 54.7514 33.4099L-33.2458 -22.0201ZM-15.2105 -39.21C-7.22649 -43.7206 1.46917 -45.8016 9.84631 -45.8016V58.1984C18.6019 58.1984 27.6448 56.0281 35.9449 51.339L-15.2105 -39.21ZM9.84631 -45.8016H4.96715V58.1984H9.84631V-45.8016ZM-40.0644 -19.8047L-40.8948 -18.3667L49.1683 33.6394L49.9987 32.2015L-40.0644 -19.8047ZM-38.3408 -22.3578C-43.5616 -14.9641 -47.6703 -5.00308 -47.9068 6.74449C-48.1363 18.1425 -44.6482 27.365 -41.0897 33.6327L49.3503 -17.7153C52.8431 -11.5633 56.2995 -2.4524 56.0721 8.83817C55.8377 20.4783 51.7652 30.336 46.6144 37.6306L-38.3408 -22.3578ZM-41.0897 33.6327C-31.9311 49.7637 -14.7112 60.1323 4.42593 60.1323V-43.8677C12.2082 -43.8677 21.515 -42.0765 30.5808 -36.7539C39.6138 -31.4506 45.6254 -24.276 49.3503 -17.7153L-41.0897 33.6327ZM4.42593 60.1323H11.8616V-43.8677H4.42593V60.1323ZM-40.1384 8.13225V8.77688H63.8616V8.13225H-40.1384ZM11.8616 -43.2231H4.42593V60.7769H11.8616V-43.2231ZM4.42593 -43.2231C11.1999 -43.2231 19.7186 -41.8377 28.3615 -37.2314C37.1597 -32.5422 43.5402 -25.8666 47.7493 -19.0664L-40.6815 35.6693C-30.2427 52.5341 -12.4811 60.7769 4.42593 60.7769V-43.2231ZM47.7493 -19.0664C51.7449 -12.6112 55.2139 -3.70511 55.3772 7.03476C55.5407 17.7968 52.3306 26.8682 48.4406 33.5396L-41.4018 -18.847C-45.4783 -11.8557 -48.7792 -2.46528 -48.6108 8.61519C-48.4428 19.6734 -44.8732 28.8972 -40.6815 35.6693L47.7493 -19.0664ZM48.2179 33.9178L49.2452 32.1897L-40.1518 -20.9533L-41.1791 -19.2252L48.2179 33.9178ZM50.9634 -17.8229L48.4517 -22.7965L-44.3818 24.0857L-41.8701 29.0593L50.9634 -17.8229ZM2.03494 -51.3554H0.799988V52.6446H2.03494V-51.3554ZM52.8 0.644624V0H-51.2V0.644624H52.8ZM0.799988 52H2.46839V-52H0.799988V52ZM-43.9788 23.3807L-43.3298 24.6699L49.5646 -22.0914L48.9156 -23.3807L-43.9788 23.3807Z"
        fill="#033E6A" mask="url(#path-1-inside-1_68_218)" />
</svg>