<svg width="13" height="8" viewBox="0 0 13 8" fill="none" xmlns="http://www.w3.org/2000/svg">
<path d="M12.4749 6.10415H10.6253C10.7365 6.06709 10.8474 6.02691 10.9556 5.98352C11.6634 5.70007 12.0223 5.3669 12.0223 4.99318C12.0223 4.41876 11.5579 4.22575 11.1481 4.05559C10.9725 3.98266 10.791 3.90717 10.6424 3.8047C10.5623 3.74967 10.4528 3.76994 10.3979 3.85002C10.3429 3.93019 10.3631 4.03981 10.4431 4.09494C10.6222 4.21842 10.8212 4.30107 11.0134 4.38096C11.4333 4.55535 11.6708 4.66974 11.6708 4.99318C11.6708 5.19949 11.3626 5.4412 10.8252 5.6565C10.1813 5.91435 9.43404 6.05406 9.12816 6.10415H8.55248C8.94679 5.79602 9.22621 5.37396 9.40502 4.81531C9.62273 4.1354 9.93309 3.63601 10.4115 3.19616C10.5443 3.07406 10.6034 2.9017 10.5827 2.73814L11.5852 1.99089C11.6124 1.97062 11.65 1.96988 11.6786 1.98915C11.8958 2.13528 12.1192 2.17527 12.3245 2.10473C12.4865 2.04914 12.6134 1.93282 12.682 1.77715C12.7531 1.61552 12.7524 1.42674 12.6798 1.25914C12.5846 1.03954 12.3821 0.890107 12.1511 0.86323C12.1947 0.634359 12.113 0.395948 11.9323 0.23927C11.7945 0.119743 11.615 0.0624106 11.4397 0.0820412C11.271 0.100938 11.1223 0.187533 11.0207 0.325681C10.8921 0.500889 10.8633 0.726366 10.9374 0.977711C10.9472 1.01083 10.9353 1.04651 10.9081 1.06632L9.89601 1.8011C9.74642 1.73239 9.56459 1.73716 9.40859 1.82752C8.84645 2.15316 8.278 2.3003 7.56535 2.3048C6.95332 2.30865 6.45015 2.46175 6.02708 2.77309C5.55485 3.12038 5.23835 3.6217 5.13581 4.18447C5.03263 4.7511 5.15815 5.31204 5.4893 5.76391C5.58167 5.88995 5.68824 6.00379 5.80635 6.10415H3.57987C2.22727 5.83115 1.56973 5.15536 1.56973 4.03853C1.56973 3.18882 1.94867 2.31296 2.6095 1.63552C3.3237 0.903225 4.27769 0.499972 5.29548 0.499972C6.4615 0.499972 7.67366 0.926158 8.62123 1.66928C8.69768 1.72927 8.80818 1.71569 8.86797 1.6391C8.92784 1.5625 8.91438 1.45187 8.83794 1.39188C7.82976 0.601244 6.53859 0.147721 5.29548 0.147721C4.1822 0.147721 3.13904 0.588676 2.3581 1.38931C1.63364 2.13197 1.21817 3.09764 1.21817 4.03853C1.21817 4.99245 1.63867 5.68374 2.46988 6.10415H1.47827C1.2016 6.10415 0.976562 6.32963 0.976562 6.60684C0.976562 6.88405 1.2016 7.10962 1.47827 7.10962H2.11566C2.12555 7.10962 2.13434 7.11549 2.13809 7.12467L2.2497 7.39839C2.38163 7.72202 2.69226 7.93108 3.04117 7.93108H10.912C11.2609 7.93108 11.5715 7.72202 11.7035 7.39839L11.8151 7.12476C11.8188 7.11558 11.8276 7.10962 11.8375 7.10962H12.4749C12.7515 7.10962 12.9766 6.88405 12.9766 6.60684C12.9766 6.32972 12.7516 6.10415 12.4749 6.10415ZM11.1147 1.35134C11.2621 1.24383 11.3263 1.05357 11.2745 0.877815C11.2454 0.779112 11.2268 0.639312 11.3039 0.534371C11.3586 0.459885 11.4292 0.437686 11.4788 0.43209C11.5571 0.423376 11.6384 0.450161 11.7023 0.505567C11.8164 0.604638 11.8262 0.738566 11.7973 0.830849C11.7696 0.919095 11.7861 1.01624 11.8414 1.09109C11.8961 1.16622 11.9836 1.21099 12.0758 1.21099H12.0759C12.1725 1.21099 12.2971 1.26052 12.3572 1.3994C12.3908 1.47701 12.392 1.56296 12.3603 1.63497C12.3401 1.68065 12.2977 1.74147 12.2105 1.77147C12.0875 1.81366 11.9599 1.75413 11.8746 1.69671C11.7229 1.59461 11.5225 1.59901 11.3756 1.70799L10.4251 2.41643L10.155 2.04795L11.1147 1.35134ZM5.77275 5.5555C5.49937 5.18243 5.39601 4.71799 5.4817 4.24777C5.56803 3.77379 5.83564 3.35082 6.23509 3.057C6.59636 2.79116 7.03224 2.66035 7.56755 2.65705C8.34465 2.65209 8.96666 2.49037 9.58455 2.13243C9.65258 2.09308 9.73296 2.09886 9.78414 2.14316C9.78487 2.14381 9.7856 2.14436 9.78633 2.145C9.79338 2.15142 9.79998 2.15858 9.80574 2.16646L10.2077 2.71502C10.2132 2.72264 10.2183 2.73117 10.2224 2.74043C10.2226 2.7408 10.2228 2.74107 10.2229 2.74135C10.2506 2.80382 10.2321 2.88307 10.1738 2.93665C9.648 3.42007 9.3076 3.96634 9.0703 4.70771C8.90679 5.21848 8.65163 5.59595 8.29036 5.8617C8.15559 5.96086 8.00865 6.04241 7.85347 6.10415H6.47258C6.19197 5.98728 5.95054 5.79813 5.77275 5.5555ZM12.4749 6.75737H4.72529C4.62824 6.75737 4.54951 6.83617 4.54951 6.9335C4.54951 7.03073 4.62824 7.10962 4.72529 7.10962H11.4414L11.3781 7.2652C11.3003 7.45573 11.1174 7.57883 10.912 7.57883H3.04117C2.83573 7.57883 2.6528 7.45573 2.57508 7.2652L2.51172 7.10962H3.90745C4.00449 7.10962 4.08323 7.03073 4.08323 6.9335C4.08323 6.83617 4.00449 6.75737 3.90745 6.75737H1.47827C1.39542 6.75737 1.32813 6.68986 1.32813 6.60684C1.32813 6.52391 1.39542 6.4564 1.47827 6.4564H12.4749C12.5576 6.4564 12.625 6.52391 12.625 6.60684C12.625 6.68986 12.5576 6.75737 12.4749 6.75737Z" fill="#005DA4"/>
</svg>
