<svg width="22" height="15" viewBox="0 0 22 15" fill="none" xmlns="http://www.w3.org/2000/svg">
    <path
        d="M4.68776 14.1155C3.96009 14.1155 3.34301 13.8612 2.83651 13.3525C2.33018 12.844 2.07701 12.2265 2.07701 11.5H0.692261V1.6155C0.692261 1.15517 0.846427 0.770833 1.15476 0.4625C1.46309 0.154167 1.84743 0 2.30776 0H15.5385V3.6155H17.8463L21.3078 8.26925V11.5H19.6923C19.6923 12.2265 19.4376 12.844 18.9283 13.3525C18.4188 13.8612 17.8002 14.1155 17.0725 14.1155C16.3447 14.1155 15.7276 13.8612 15.2213 13.3525C14.7148 12.844 14.4615 12.2265 14.4615 11.5H7.30776C7.30776 12.2308 7.05301 12.8494 6.54351 13.3558C6.03418 13.8622 5.41559 14.1155 4.68776 14.1155ZM4.69226 13.1155C5.14226 13.1155 5.52401 12.9587 5.83751 12.6453C6.15101 12.3317 6.30776 11.95 6.30776 11.5C6.30776 11.05 6.15101 10.6683 5.83751 10.3548C5.52401 10.0413 5.14226 9.8845 4.69226 9.8845C4.24226 9.8845 3.86051 10.0413 3.54701 10.3548C3.23368 10.6683 3.07701 11.05 3.07701 11.5C3.07701 11.95 3.23368 12.3317 3.54701 12.6453C3.86051 12.9587 4.24226 13.1155 4.69226 13.1155ZM1.69226 10.5H2.33851C2.48084 10.059 2.77059 9.6795 3.20776 9.3615C3.64493 9.0435 4.13976 8.8845 4.69226 8.8845C5.21926 8.8845 5.70776 9.04033 6.15776 9.352C6.60776 9.6635 6.90393 10.0462 7.04626 10.5H14.5385V1H2.30776C2.15393 1 2.01284 1.06408 1.88451 1.19225C1.75634 1.32042 1.69226 1.4615 1.69226 1.6155V10.5ZM17.077 13.1155C17.527 13.1155 17.9087 12.9587 18.222 12.6453C18.5355 12.3317 18.6923 11.95 18.6923 11.5C18.6923 11.05 18.5355 10.6683 18.222 10.3548C17.9087 10.0413 17.527 9.8845 17.077 9.8845C16.627 9.8845 16.2453 10.0413 15.9318 10.3548C15.6183 10.6683 15.4615 11.05 15.4615 11.5C15.4615 11.95 15.6183 12.3317 15.9318 12.6453C16.2453 12.9587 16.627 13.1155 17.077 13.1155ZM15.5385 8.5H20.25L17.3078 4.6155H15.5385V8.5Z"
        fill="#033E6A" />
</svg>