<svg width="13" height="12" viewBox="0 0 13 12" fill="none" xmlns="http://www.w3.org/2000/svg">
    <path
        d="M5.75998 8.87971C5.68175 8.8797 5.60566 8.85421 5.54321 8.8071C5.48076 8.75999 5.43536 8.69382 5.41387 8.6186L4.76839 6.35971H3.59998V5.63971H5.03998C5.1182 5.63972 5.19429 5.66521 5.25674 5.71232C5.31919 5.75943 5.36459 5.8256 5.38608 5.90082L5.75998 7.20931L6.85387 3.38082C6.87539 3.30563 6.9208 3.2395 6.98325 3.19242C7.04569 3.14534 7.12177 3.11987 7.19998 3.11987C7.27818 3.11987 7.35426 3.14534 7.4167 3.19242C7.47915 3.2395 7.52456 3.30563 7.54608 3.38082L8.19156 5.63971H9.35998V6.35971H7.91998C7.84175 6.3597 7.76566 6.33421 7.70321 6.2871C7.64076 6.23999 7.59536 6.17382 7.57387 6.0986L7.19998 4.79011L6.10608 8.6186C6.08459 8.69382 6.03919 8.75999 5.97674 8.8071C5.91429 8.85421 5.8382 8.8797 5.75998 8.87971Z"
        fill="white" />
    <path
        d="M6.48023 11.3999C6.4165 11.4 6.3539 11.3831 6.29883 11.3511L1.97883 8.83107C1.92447 8.79933 1.87938 8.7539 1.84805 8.69931C1.81671 8.64472 1.80023 8.58287 1.80023 8.51993V3.47993C1.80021 3.417 1.81669 3.35517 1.84803 3.30061C1.87936 3.24604 1.92447 3.20065 1.97883 3.16896L6.29883 0.64896C6.35389 0.61684 6.41649 0.599915 6.48023 0.599915C6.54398 0.599915 6.60658 0.61684 6.66164 0.64896L10.9816 3.16896L10.6188 3.7909L6.48023 1.3767L2.52023 3.68664V8.31322L6.48023 10.6233L10.4402 8.31322V5.63993H11.1602V8.51993C11.1602 8.58287 11.1438 8.64472 11.1124 8.69931C11.0811 8.7539 11.036 8.79933 10.9816 8.83107L6.66164 11.3511C6.60657 11.3831 6.54396 11.4 6.48023 11.3999Z"
        fill="white" />
</svg>