<svg width="12" height="8" viewBox="0 0 12 8" fill="none" xmlns="http://www.w3.org/2000/svg">
    <path
        d="M1.077 7.6C0.770111 7.6 0.513889 7.489 0.308333 7.267C0.102778 7.045 0 6.76828 0 6.43684V1.56316C0 1.23172 0.102778 0.955001 0.308333 0.733002C0.513889 0.511002 0.770111 0.400002 1.077 0.400002H10.923C11.2299 0.400002 11.4861 0.511002 11.6917 0.733002C11.8972 0.955001 12 1.23172 12 1.56316V6.43684C12 6.76828 11.8972 7.045 11.6917 7.267C11.4861 7.489 11.2299 7.6 10.923 7.6H1.077ZM1.077 6.88H10.923C11.0257 6.88 11.1197 6.83386 11.2052 6.74158C11.2906 6.6493 11.3333 6.54772 11.3333 6.43684V1.56316C11.3333 1.45228 11.2906 1.3507 11.2052 1.25842C11.1197 1.16614 11.0257 1.12 10.923 1.12H9V3.44614H8.33333V1.12H6.33333V3.44614H5.66667V1.12H3.66667V3.44614H3V1.12H1.077C0.974333 1.12 0.880278 1.16614 0.794833 1.25842C0.709389 1.3507 0.666667 1.45228 0.666667 1.56316V6.43684C0.666667 6.54772 0.709389 6.6493 0.794833 6.74158C0.880278 6.83386 0.974333 6.88 1.077 6.88Z"
        fill="#033E6A" />
</svg>