<svg width="13" height="12" viewBox="0 0 13 12" fill="none" xmlns="http://www.w3.org/2000/svg">
<path d="M9.95555 2.06789C10.0469 2.15953 10.0469 2.30794 9.95555 2.39958C9.86391 2.49095 9.7155 2.49095 9.62386 2.39958C9.53249 2.30794 9.53249 2.15953 9.62386 2.06789C9.7155 1.97642 9.86391 1.97642 9.95555 2.06789Z" fill="#005DA4"/>
<path d="M8.96101 5.05131C9.05265 5.14295 9.05265 5.29136 8.96101 5.38273C8.86955 5.47437 8.72096 5.47437 8.62949 5.38273C8.53785 5.29136 8.53785 5.14295 8.62949 5.05131C8.72096 4.95985 8.86955 4.95985 8.96101 5.05131Z" fill="#005DA4"/>
<path d="M5.97758 8.36617C5.88612 8.45782 5.73753 8.45782 5.64606 8.36617C5.55442 8.2748 5.55442 8.1264 5.64606 8.03475C5.73753 7.94329 5.88612 7.94329 5.97758 8.03475C6.06922 8.1264 6.06922 8.2748 5.97758 8.36617Z" fill="#005DA4"/>
<path d="M5.81187 3.55955C5.90351 3.65128 5.90351 3.7996 5.81187 3.89124C5.72013 3.9827 5.57182 3.9827 5.48035 3.89124C5.38871 3.7996 5.38871 3.65128 5.48035 3.55955C5.57182 3.46818 5.72013 3.46818 5.81187 3.55955Z" fill="#005DA4"/>
<path d="M1.82236 3.73771L5.41389 2.38501C5.53584 2.33914 5.67051 2.4014 5.71592 2.52179C5.76152 2.64292 5.70027 2.77814 5.57914 2.82373L1.96482 4.18503C2.88337 6.96705 5.05638 9.14006 7.8384 10.0586L11.3872 0.63626L7.33495 2.16245C7.21382 2.20813 7.0786 2.14688 7.03301 2.02567C6.98741 1.90454 7.04857 1.76932 7.16979 1.72373L11.7064 0.0150728C11.793 -0.0176115 11.8901 0.00399494 11.9547 0.0687227C12.0198 0.133726 12.0408 0.230864 12.0084 0.317015L8.28563 10.2011C8.8951 10.4502 9.0631 11.2474 8.58821 11.7227C8.36711 11.9434 8.05684 12.0411 7.75838 11.984C3.85658 11.2385 0.787815 8.18187 0.0394612 4.26514C-0.0176678 3.96659 0.0799276 3.65632 0.300845 3.43503C0.776737 2.95951 1.57352 3.12897 1.82236 3.73771ZM0.499881 4.17707C1.21582 7.92396 4.09947 10.8076 7.84636 11.5235C7.99394 11.5517 8.14702 11.5007 8.25679 11.3912C8.50692 11.1408 8.39788 10.7147 8.05794 10.6171C4.85386 9.69569 2.33323 7.18522 1.40625 3.96531C1.30866 3.62519 0.882206 3.51679 0.632449 3.76645C0.521487 3.8776 0.471957 4.03104 0.499881 4.17707Z" fill="#005DA4"/>
<path d="M5.31466 6.37736C4.85754 6.83421 4.11403 6.83421 3.65719 6.37736C3.19924 5.91942 3.19915 5.17793 3.65719 4.71989C4.11403 4.26304 4.85754 4.26304 5.31466 4.71989C5.7727 5.17784 5.7727 5.91933 5.31466 6.37736ZM4.98324 5.0514C4.70895 4.77729 4.26281 4.7772 3.9887 5.05131C3.71395 5.32615 3.71386 5.77101 3.9887 6.04585C4.26281 6.31996 4.70895 6.31996 4.98315 6.04585C5.2579 5.77119 5.25808 5.32625 4.98324 5.0514Z" fill="#005DA4"/>
<path d="M8.13218 6.21156C8.49775 6.57713 8.49775 7.17204 8.13218 7.53761C7.76661 7.90309 7.17188 7.90309 6.80631 7.53761C6.44074 7.17204 6.44074 6.57713 6.80631 6.21156C7.17179 5.84608 7.76661 5.84599 8.13218 6.21156ZM7.13783 7.2061C7.32047 7.38884 7.61793 7.38884 7.80067 7.2061C7.9835 7.02327 7.9835 6.72581 7.80067 6.54307C7.61793 6.36024 7.32057 6.36033 7.13783 6.54307C6.955 6.72581 6.955 7.02327 7.13783 7.2061Z" fill="#005DA4"/>
<path d="M7.46917 4.22267C7.10397 3.8571 7.10397 3.26228 7.46927 2.89671C7.83484 2.53114 8.42975 2.53114 8.79541 2.8968C9.16061 3.26228 9.16061 3.8571 8.79541 4.22267C8.79532 4.22267 8.79523 4.22276 8.79523 4.22276C8.42966 4.58805 7.83493 4.58805 7.46917 4.22267ZM8.4638 3.22822C8.28097 3.04539 7.98352 3.04539 7.80078 3.22813C7.61813 3.41096 7.61813 3.70851 7.80069 3.89115C7.98352 4.0738 8.28097 4.07389 8.4638 3.89125C8.64636 3.70841 8.64636 3.41096 8.4638 3.22822Z" fill="#005DA4"/>
<path d="M6.20876 2.43932C6.11702 2.34795 6.11702 2.19954 6.20876 2.10789C6.30013 2.01652 6.44872 2.01652 6.54018 2.10789C6.63182 2.19954 6.63182 2.34795 6.54018 2.43932C6.44872 2.53105 6.30013 2.53105 6.20876 2.43932Z" fill="#005DA4"/>
</svg>
